# xmcd
#
# Track frame offsets:
#	182
#	23197
#	37507
#	56757
#	76050
#	88542
#	106995
#	125645
#	141072
#	167537
#	180622
#	193190
#	212335
#	223702
#
# Disc length: 3204 seconds
#
# Revision: 1
# Processed by: cddbd v1.4PL0 Copyright (c) Steve Scherf et al.
# Submitted via: EasyCDDAExtractor 5.0.7
#
DISCID=b40c820e
DTITLE=Joan Orleans - sings Mahalia Jackson
DYEAR=1999
DGENRE=Blues
TTITLE0=How Great Thou Art
TTITLE1=My God Is Real
TTITLE2=Soon I will Be Done With The Trouble Of The World
TTITLE3=Speak Lord Jesus
TTITLE4=The Lord's Prayer
TTITLE5=Nobody Knows The Trouble Ivce Seen
TTITLE6=Overcomer's Medley
TTITLE7=He May Not Come When You Want Him! But He's Right On Time!
TTITLE8=Saint's Medley
TTITLE9=Precious Lord
TTITLE10=Walk In Jerusalem
TTITLE11=Swing Low Sweet Chariot
TTITLE12=Sometimes I Feel Like A Motherless Child
TTITLE13=Kumbaya
EXTD=
EXTT0=
EXTT1=
EXTT2=
EXTT3=
EXTT4=
EXTT5=
EXTT6=
EXTT7=
EXTT8=
EXTT9=
EXTT10=
EXTT11=
EXTT12=
EXTT13=
PLAYORDER=
